<?xml version="1.0" encoding="UTF-8"?>
<svg xmlns="http://www.w3.org/2000/svg" xmlns:xlink="http://www.w3.org/1999/xlink" version="1.1" viewBox="0 0 474 330">
  <!-- Generator: Adobe Illustrator 30.4.0, SVG Export Plug-In . SVG Version: 2.1.4 Build 226)  -->
  <defs>
    <style>
      .st0, .st1, .st2, .st3 {
        fill: none;
      }

      .st4, .st5 {
        fill: #b89968;
      }

      .st6 {
        font-family: Helvetica-Bold, Helvetica;
        font-size: 38px;
        font-weight: 700;
        letter-spacing: 0em;
      }

      .st6, .st7 {
        fill: #1a3a6b;
      }

      .st6, .st8, .st5 {
        isolation: isolate;
      }

      .st1 {
        stroke-width: 2.2px;
      }

      .st1, .st2 {
        stroke-miterlimit: 3.6;
      }

      .st1, .st2, .st3 {
        stroke: #b89968;
      }

      .st9 {
        opacity: .9;
      }

      .st2 {
        stroke-width: 1.3px;
      }

      .st3 {
        stroke-miterlimit: 3.6;
        stroke-width: 1.3px;
      }

      .st10 {
        display: none;
      }

      .st11 {
        clip-path: url(#clippath);
      }

      .st5 {
        font-family: Helvetica-Light, Helvetica;
        font-size: 18px;
        font-weight: 300;
        letter-spacing: .2em;
      }
    </style>
    <clipPath id="clippath">
      <rect class="st0" x="0" y="72.8" width="227.7" height="205.7"/>
    </clipPath>
  </defs>
  <g id="ABC-Logo">
    <g class="st10">
      <path class="st4" d="M61.8,88.6c-30.8,17.8-49.7,50.6-50,86.2l-4.5,3.9c-.3-6.8,0-13.1.8-19.6,2.6-21,11.9-40.7,26.4-56.1,9.4-9.9,20.6-18,33.2-23.4,19.5-8.3,41.3-9.9,61.8-4.7.4,0,.8.3,1,.6s.2,1,0,1.3c-.4,1.4-1.9,2-3.4,1.8-4.5-.8-8.7-1.5-13.3-1.9-18.2-1.4-36.2,2.8-52,11.9Z"/>
      <path class="st4" d="M193.3,126.2c2.3,4.6,4,9,5.7,13.7s0,1.2-.3,1.5-1.2.6-1.6.5c-1.5-.4-2.4-1.5-2.9-2.9-8-20.8-22.5-38.3-41.5-49.9-2.2-1.3-2.5-3.9-1.3-4.9s1.1-.3,1.4-.1l6.2,3.6c5.3,3.5,10.3,7.2,14.8,11.7,8,7.8,14.6,16.7,19.7,26.8Z"/>
      <path class="st4" d="M59,261c-8.8-3.7-16.9-9.9-23.6-16.6l3.7-2.4c5.1,5.1,10.8,9.4,17,13.1l2.9,5.8Z"/>
      <path class="st4" d="M202,188.1c-.8.2-1.7.8-1.9,1.7-1.2,5.6-2.6,11-4.6,16.4-2.6,6.8-6.1,13.1-10.6,18.8-3.2,4.1-7,7.5-11.5,10.2-12.6,7.7-27.9,4.8-35.6-7.9-7.2-12.2-6.2-27.8-1.8-41,10,7.9,24.5,9.3,34.3,1.4.6-.5,1.1-1.2,1.2-1.9,0-.3-.2-1-.5-1h-.9c-2.6,2.1-5.4,3.4-8.6,4.2-9,2-17.2-.9-24.2-6.6,5.8-13.3,14.7-25.6,27.5-32.6,7.9-4.3,17.6-6.2,25.9-2.5,8.6,3.8,12.1,12.8,10.4,21.8-1.4,7.3-6.5,13.3-14.1,13.7-3.5.2-6.6-1.2-9.1-3.7-.5-.5-1.6.2-1.9.7-.4.7-.2,1.5.3,2.1,1.9,2.3,4.5,3.7,7.6,4.2,7.3,1,14.6-2.1,18.9-8.1,6.5-8.9,5.9-22.3-2.2-29.9-9.5-8.8-25.4-8.1-37-3.1-8.3,3.5-15.7,8.7-21.8,15.3-4.3,4.6-7.7,9.7-11,15.3-1.4-2.3-2.4-4.7-3.2-7.3-3.6-11.3-2.1-23.3.5-34.8,8.6,2.6,18,3,26-.5,2.9-1.4,5.5-3.2,7.5-5.8,1.9-2.6,2.6-5.6,1.3-5.5-.3,0-.7.4-.8.6-1.6,3-4.1,5.1-7.1,6.7-7.9,4.1-17.4,3-25.7.3,2.9-9.8,6.3-19.1,10.2-28.4,2.4-5.6,4.9-10.9,7.5-16.4,1.7-3.4,3.3-7.4,3.1-11.1-.1-1.6-1.3-2.6-2.9-2.6-3.5,0-8.4,3.3-11.5,5.6-6.1,4.6-11.5,9.9-16.7,15.6-7.2,7.8-13.8,15.8-20.4,24.2-10.2-3.8-21.5-5.6-32-2.5-9,2.7-17.2,9.8-16.4,19.6.5,6.3,6.4,10.7,12.4,9,.8-.2,1.1-1.2,1-1.7-.2-.8-.9-1-1.7-.8-3,.6-6.4-.7-7.7-3.5-1.4-3.1-.7-6.6,1.1-9.5,2.2-3.4,5.5-5.8,9.2-7.4,9.9-4.3,20.9-2.6,30.9,1l-9.2,12.1c-3.7,4.8-7.4,9.3-11.4,13.8-2.9,3-6,5.6-9.5,7.7-2.5,1.4-5,2.4-7.9,2.7-.2.2-.7.6-.6.8l.4.9c-9.8,2.2-19.3,5.1-28.5,9-10.6,4.5-21.6,11.2-26.7,21.7-3.5,7.1-3,15.4,1.5,21.9,3.3,4.6,8.2,7.4,13.8,8.3,3.3,6.9,7.3,13.1,12.1,18.9,1.3-.9,2.3-1.7,3.3-2.7-4.1-5.2-7.6-10.4-10.4-16.2,7.5-.4,14.7-4.9,16.5-12.3,0-.8-.4-1.6-1-1.8-.9-.3-1.5.2-1.9,1-2.7,6.2-8.5,10-15.3,9.7-4-9.3-6.7-18.8-8.1-28.7-1.6,2-2.8,3.8-3.8,6,1.5,7.6,3.7,14.7,6.8,21.9-5-1.7-8.4-5.7-9.6-10.7-2.3-9,3.2-17.9,10.4-23.5,4.7-3.6,9.9-6.4,15.4-8.7,10-4.3,20.2-7.7,30.7-10.4,6.3-1.6,12.6-2.9,19.1-3.3-3.9,2.5-6.8,5.2-9.6,8.6-4.9,6-8.8,12.6-12.2,19.6-5.7,11.9-9.8,23.9-15.8,35.7-2.2,4.3-4.5,8.2-7.5,11.9-4.7,5.8-10.8,9-18.1,6.7-.4-.1-1.1.1-1.2.4-1.3,2.1,7.5,5.7,16.7,1.3,7-3.4,12.3-9.4,16.2-16,2.9-4.8,5.3-9.6,7.4-14.7l6.9-17.4,5.9-14.2c1.4-3.4,3.1-6.6,5.1-9.7,4.4-6.8,10.2-12.8,18.7-10.4,4.1,1.2,7,4.4,7.7,8.7.6,3.3,0,6.7-1.9,9.6-3.8,6.4-10,10.7-17.2,12.6-3.1.8-6.1,1.2-9.2,1.6-1,.1-1.5,1-1.4,1.8.2,1,1,1.3,2.1,1.2,4.7-.6,9.3-.3,13.7,1.3,9.4,3.3,13.9,10.4,15,20.3-9.5-1-18.8.2-27.4,4.1-6.6,3.1-12.5,7.7-16,14.1-5.2,9.5-3.4,21,4.6,28.4,3.5,3.2,7.4,5.5,11.9,7.3,13.7,5.3,30.7,6.1,45.2,3.5,19.7-3.5,37.8-12.9,52.1-26.8,3.9-3.8,7.5-7.8,10.8-12.2,10.4-13.8,17-30,19-47.2,0-.6-.8-.9-1.3-.8ZM134.6,82.3c3.3-3,6.7-5.5,10.5-7.6.6-.3,1.3-.4,2-.1-.4,1.9-1.3,3.5-2.2,5.2l-7.4,13c-2.6,4.5-4.8,8.9-7,13.6-3.1,6.7-5.6,13.3-7.8,20.6l-18.7-8.6c9.2-12.9,18.8-25.3,30.6-36ZM89.6,193.6c9.7-3.1,18.2-9.8,18.8-20.5.3-9.7-6.7-15.3-15.7-16.9-7.9-1.4-15.3-.8-23.5,0,3.6-2.1,6.9-4.1,9.9-6.8,8.6-7.8,15.2-17.3,21.9-26.9l10.3,4.7,10.3,4.1c-4.5,17.4-3.9,33.9,7.3,48.5-3.7,8.1-5.9,16.7-6,25.6,0,6.9,1.6,13.5,4.4,19.7-5.4-2.8-10.5-5-16.2-6.2-.4-4-1.2-7.6-3-11.3-3.8-7.3-10.4-12.2-18.5-14.1ZM65.8,235.6c2.9-3.9,6.6-6.9,10.9-9.2,8.1-4.3,17.2-6.1,26.4-5.3-.2,14.3-7.6,28.2-20.2,35-5.7,3-11.9,4.1-18.4,2.7-5.8-6.8-4-16.4,1.2-23.2ZM173.1,242.4c-17.6,17.5-41.3,28.6-66.3,29.3-11.9.3-27.3-2-37.3-8.7,7.2.5,13.8-1.1,20-4.5,4.4-2.4,8.1-5.4,11.5-9.1,6.7-7.5,10.4-17,10.4-27.1,6.8,1.8,13,4.4,18.9,7.6,3.5,4.9,8,8.5,13.3,10.9,11.6,4.7,24.3,3.1,34.6-4.4-1.3,2.4-3.3,3.8-4.9,5.8Z"/>
    </g>
    <g class="st8">
      <path class="st4" d="M249,82.5c1.3.7,2,1.9,2.3,3.5h-1.7c-.2-.9-.6-1.6-1.3-2.1-.6-.4-1.5-.6-2.5-.6s-2.2.4-3,1.3c-.8.9-1.2,2.2-1.2,4s.3,2.8,1,3.7c.7,1,1.7,1.4,3.2,1.4s2.1-.3,2.8-1c.7-.7,1.1-1.8,1.2-3.3h-4v-1.5h5.7v6.9h-1.1l-.4-1.7c-.6.7-1.1,1.1-1.5,1.4-.8.4-1.7.7-2.9.7s-2.8-.5-3.9-1.5c-1.2-1.2-1.8-2.9-1.8-5.1s.6-3.9,1.7-5.2c1.1-1.2,2.5-1.8,4.3-1.8s2.2.2,3.1.7Z"/>
      <path class="st4" d="M263,85.8c.6.3,1.1.7,1.4,1.2.3.5.5,1,.6,1.7,0,.4.1,1.1.1,2.1h-6.8c0,1,.3,1.7.7,2.3.4.6,1.1.9,1.9.9s1.5-.3,2-.8c.3-.3.5-.7.6-1.1h1.6c0,.3-.2.7-.4,1.2s-.5.8-.8,1c-.5.5-1.1.8-1.8.9-.4,0-.8.1-1.3.1-1.2,0-2.2-.4-3-1.3-.8-.9-1.2-2-1.2-3.6s.4-2.7,1.2-3.7c.8-.9,1.9-1.4,3.2-1.4s1.3.2,1.9.5ZM263.5,89.5c0-.7-.2-1.2-.4-1.6-.4-.8-1.1-1.1-2.2-1.1s-1.3.3-1.8.8c-.5.5-.7,1.2-.8,2h5.2Z"/>
      <path class="st4" d="M270.2,85.6h1.5v1.6c.1-.3.4-.7.9-1.2.5-.5,1-.7,1.7-.7s0,0,.1,0,.2,0,.4,0v1.7c0,0-.2,0-.3,0s-.2,0-.3,0c-.8,0-1.4.3-1.8.8-.4.5-.6,1.1-.6,1.8v5.4h-1.6v-9.4Z"/>
      <path class="st4" d="M279.2,82.1h1.6v12.9h-1.6v-12.9Z"/>
      <path class="st4" d="M286.1,82.1h1.6v1.8h-1.6v-1.8ZM286.1,85.6h1.6v9.4h-1.6v-9.4Z"/>
      <path class="st4" d="M293.1,85.6h1.5v1.3c.4-.6.9-.9,1.4-1.2s1.1-.4,1.7-.4c1.3,0,2.2.5,2.7,1.4.3.5.4,1.2.4,2.2v6h-1.6v-5.9c0-.6,0-1-.3-1.4-.3-.6-.8-.9-1.5-.9s-.7,0-.9.1c-.4.1-.8.4-1.1.8-.3.3-.4.6-.5,1s-.1.8-.1,1.4v4.9h-1.6v-9.4Z"/>
      <path class="st4" d="M311.3,85.9c.3.2.6.5,1,.9v-4.8h1.5v13h-1.4v-1.3c-.4.6-.8,1-1.3,1.3s-1.1.4-1.7.4c-1,0-2-.4-2.7-1.3s-1.1-2.1-1.1-3.5.3-2.6,1-3.6c.7-1,1.7-1.5,3-1.5s1.3.2,1.8.5ZM307.7,92.9c.4.7,1.1,1,2,1s1.3-.3,1.8-.9c.5-.6.7-1.5.7-2.7s-.2-2.1-.7-2.6c-.5-.6-1.1-.9-1.8-.9s-1.4.3-1.9.9-.7,1.5-.7,2.7.2,1.9.6,2.5Z"/>
      <path class="st4" d="M324.9,85.8c.6.3,1.1.7,1.4,1.2.3.5.5,1,.6,1.7,0,.4.1,1.1.1,2.1h-6.8c0,1,.3,1.7.7,2.3.4.6,1.1.9,1.9.9s1.5-.3,2-.8c.3-.3.5-.7.6-1.1h1.6c0,.3-.2.7-.4,1.2-.2.4-.5.8-.8,1-.5.5-1.1.8-1.8.9-.4,0-.8.1-1.3.1-1.2,0-2.2-.4-3-1.3-.8-.9-1.2-2-1.2-3.6s.4-2.7,1.2-3.7c.8-.9,1.9-1.4,3.2-1.4s1.3.2,1.9.5ZM325.5,89.5c0-.7-.2-1.2-.4-1.6-.4-.8-1.1-1.1-2.2-1.1s-1.3.3-1.8.8-.7,1.2-.8,2h5.2Z"/>
      <path class="st4" d="M340.5,82.1h5.8c1.1,0,2.1.3,2.8,1,.7.6,1.1,1.6,1.1,2.7s-.3,1.9-.9,2.6c-.6.7-1.6,1.1-2.9,1.1h-4v5.5h-1.8v-12.9ZM347.3,83.9c-.4-.2-.9-.3-1.6-.3h-3.5v4.5h3.5c.8,0,1.4-.2,1.9-.5.5-.3.7-.9.7-1.8s-.3-1.6-1-1.9Z"/>
      <path class="st4" d="M355.1,85.6h1.5v1.6c.1-.3.4-.7.9-1.2.5-.5,1-.7,1.7-.7s0,0,.1,0,.2,0,.4,0v1.7c0,0-.2,0-.3,0,0,0-.2,0-.3,0-.8,0-1.4.3-1.8.8-.4.5-.6,1.1-.6,1.8v5.4h-1.6v-9.4Z"/>
      <path class="st4" d="M369.1,89.3c.4,0,.6-.2.7-.5,0-.1.1-.3.1-.6,0-.5-.2-.9-.6-1.2s-.9-.4-1.6-.4-1.4.2-1.8.7c-.2.2-.3.6-.4,1.1h-1.5c0-1.2.4-2,1.1-2.4.7-.5,1.6-.7,2.5-.7s2,.2,2.7.6c.7.4,1,1.1,1,2v5.4c0,.2,0,.3.1.4,0,0,.2.1.4.1s.1,0,.2,0c0,0,.2,0,.3,0v1.2c-.2,0-.4.1-.6.1s-.3,0-.5,0c-.5,0-.9-.2-1.2-.6-.1-.2-.2-.5-.3-.9-.3.4-.8.8-1.4,1.1s-1.3.5-2,.5-1.6-.3-2.1-.8c-.6-.5-.8-1.2-.8-2s.3-1.5.8-2c.5-.5,1.3-.8,2.1-.9l2.5-.3ZM365.8,93.6c.3.3.7.4,1.2.4s1.1-.1,1.6-.4c.9-.4,1.3-1.1,1.3-2.1v-1.3c-.2.1-.4.2-.7.3-.3,0-.6.1-.9.2h-1c-.6.2-1,.3-1.3.5-.5.3-.7.7-.7,1.3s.2.8.5,1.1Z"/>
      <path class="st4" d="M377.1,85.6h1.6v1.3c.4-.5.7-.8,1-1,.5-.4,1.1-.5,1.8-.5s1.4.2,1.8.6c.3.2.5.5.7.9.4-.5.8-.9,1.2-1.1.5-.2,1-.4,1.6-.4,1.3,0,2.1.5,2.6,1.4s.4,1.2.4,2v6.3h-1.6v-6.5c0-.6-.2-1.1-.5-1.3s-.7-.4-1.1-.4-1.2.2-1.6.6c-.4.4-.7,1.1-.7,2.1v5.5h-1.6v-6.1c0-.6,0-1.1-.2-1.4-.2-.4-.7-.7-1.3-.7s-1.1.2-1.6.7-.7,1.3-.7,2.5v5h-1.6v-9.4Z"/>
      <path class="st4" d="M400.9,85.8c.6.3,1.1.7,1.4,1.2.3.5.5,1,.6,1.7,0,.4.1,1.1.1,2.1h-6.8c0,1,.3,1.7.7,2.3.4.6,1.1.9,1.9.9s1.5-.3,2-.8c.3-.3.5-.7.6-1.1h1.6c0,.3-.2.7-.4,1.2-.2.4-.5.8-.8,1-.5.5-1.1.8-1.8.9-.4,0-.8.1-1.3.1-1.2,0-2.2-.4-3-1.3-.8-.9-1.2-2-1.2-3.6s.4-2.7,1.2-3.7c.8-.9,1.9-1.4,3.2-1.4s1.3.2,1.9.5ZM401.4,89.5c0-.7-.2-1.2-.4-1.6-.4-.8-1.1-1.1-2.2-1.1s-1.3.3-1.8.8c-.5.5-.7,1.2-.8,2h5.2Z"/>
      <path class="st4" d="M408.1,85.6h1.5v1.6c.1-.3.4-.7.9-1.2.5-.5,1-.7,1.7-.7s0,0,.1,0,.2,0,.4,0v1.7c0,0-.2,0-.3,0,0,0-.2,0-.3,0-.8,0-1.4.3-1.8.8-.4.5-.6,1.1-.6,1.8v5.4h-1.6v-9.4Z"/>
      <path class="st4" d="M418.8,82.1l-.3,5.2h-1l-.3-5.2h1.6Z"/>
      <path class="st4" d="M424.4,92c0,.5.2.9.4,1.2.4.5,1.1.8,2.1.8s1.1-.1,1.6-.4c.5-.3.7-.6.7-1.2s-.2-.7-.5-.9c-.2-.1-.7-.3-1.4-.4l-1.3-.3c-.8-.2-1.4-.4-1.8-.7-.7-.4-1-1-1-1.8s.3-1.6,1-2.2c.7-.6,1.5-.8,2.6-.8s2.5.4,3.1,1.2c.4.5.6,1.1.6,1.7h-1.5c0-.4-.2-.7-.4-1-.4-.4-1-.6-1.9-.6s-1.1.1-1.4.3-.5.5-.5.9.2.7.6,1c.2.1.6.3,1.1.4l1.1.3c1.2.3,1.9.5,2.3.8.6.4.9,1,.9,1.9s-.3,1.6-1,2.2-1.6.9-2.9.9-2.4-.3-3-1c-.6-.6-.9-1.4-.9-2.4h1.5Z"/>
    </g>
    <g class="st8">
      <path class="st7" d="M257.9,144.4h-10.1l-1.9,5.6h-6l9.8-27.3h6.5l9.7,27.3h-6.2l-1.8-5.6ZM256.3,139.7l-3.4-10.8-3.5,10.8h6.9Z"/>
      <path class="st7" d="M293.4,150h-5.7l-11.2-19.4v19.4h-5.3v-27.3h6l10.9,19.1v-19.1h5.3v27.3Z"/>
      <path class="st7" d="M316.7,144.4h-10.1l-1.9,5.6h-6l9.8-27.3h6.5l9.7,27.3h-6.2l-1.8-5.6ZM315.1,139.7l-3.4-10.8-3.5,10.8h6.9Z"/>
      <path class="st7" d="M346.5,150v-12.2h-10.7v12.2h-5.7v-27.3h5.7v10.4h10.7v-10.4h5.7v27.3h-5.7Z"/>
      <path class="st7" d="M375.6,144.4h-10.1l-1.9,5.6h-6l9.8-27.3h6.5l9.7,27.3h-6.2l-1.8-5.6ZM374,139.7l-3.4-10.8-3.5,10.8h6.9Z"/>
      <path class="st7" d="M406.1,122.7v4.8h-8.2v22.5h-5.8v-22.5h-8.2v-4.8h22.2Z"/>
      <path class="st7" d="M424.6,144.4h-10.1l-1.9,5.6h-6l9.8-27.3h6.5l9.7,27.3h-6.2l-1.8-5.6ZM423,139.7l-3.4-10.8-3.5,10.8h6.9Z"/>
    </g>
    <g class="st8">
      <path class="st7" d="M254.4,205h-12.4v-27.3h13.3c3.4,0,5.7,1,7.1,2.9.8,1.2,1.3,2.6,1.3,4.2s-.4,3-1.3,4c-.5.6-1.2,1.1-2.1,1.6,1.4.5,2.5,1.3,3.2,2.4.7,1.1,1.1,2.4,1.1,4s-.4,3.1-1.2,4.4c-.5.9-1.2,1.6-1.9,2.2-.9.7-1.9,1.1-3.1,1.4-1.2.2-2.5.4-3.9.4ZM257.1,187.7c.7-.4,1.1-1.2,1.1-2.4s-.5-2.1-1.5-2.5c-.9-.3-1.9-.4-3.3-.4h-6v6h6.7c1.2,0,2.2-.2,2.9-.7ZM254.3,193h-6.8v7.3h6.7c1.2,0,2.1-.2,2.8-.5,1.2-.6,1.8-1.7,1.8-3.4s-.6-2.4-1.8-2.9c-.7-.3-1.6-.5-2.8-.5Z"/>
      <path class="st7" d="M287.5,194.5v-16.8h5.8v16.8c0,2.9-.5,5.2-1.4,6.8-1.7,3-4.9,4.5-9.6,4.5s-8-1.5-9.6-4.5c-.9-1.6-1.4-3.9-1.4-6.8v-16.8h5.8v16.8c0,1.9.2,3.3.7,4.1.7,1.5,2.2,2.3,4.5,2.3s3.8-.8,4.5-2.3c.4-.9.7-2.2.7-4.1Z"/>
      <path class="st7" d="M310.7,201c1.3,0,2.4-.1,3.3-.4,1.6-.6,2.4-1.6,2.4-3.2s-.4-1.6-1.2-2.1c-.8-.5-2-.9-3.7-1.3l-2.9-.6c-2.8-.6-4.8-1.3-5.9-2.1-1.8-1.3-2.8-3.2-2.8-5.9s.9-4.5,2.7-6.1c1.8-1.6,4.4-2.4,7.8-2.4s5.3.8,7.4,2.3c2,1.5,3.1,3.7,3.2,6.7h-5.5c0-1.6-.8-2.8-2.2-3.5-.9-.5-2-.7-3.3-.7s-2.6.3-3.5.9c-.9.6-1.3,1.4-1.3,2.5s.4,1.7,1.3,2.2c.6.3,1.7.7,3.6,1.1l4.7,1.1c2.1.5,3.6,1.2,4.7,2,1.6,1.3,2.4,3.1,2.4,5.6s-1,4.6-2.9,6.2c-1.9,1.7-4.6,2.5-8.1,2.5s-6.4-.8-8.4-2.4c-2-1.6-3.1-3.9-3.1-6.7h5.5c.2,1.2.5,2.2,1,2.8.9,1.1,2.5,1.7,4.8,1.7Z"/>
      <path class="st7" d="M327.6,177.7h5.7v27.3h-5.7v-27.3Z"/>
      <path class="st7" d="M362.7,205h-5.7l-11.2-19.4v19.4h-5.3v-27.3h6l10.9,19.1v-19.1h5.3v27.3Z"/>
      <path class="st7" d="M389,193.1h-13.3v7h15.1v4.9h-20.7v-27.3h20.1v4.8h-14.5v5.8h13.3v4.8Z"/>
      <path class="st7" d="M407.3,201c1.3,0,2.4-.1,3.3-.4,1.6-.6,2.4-1.6,2.4-3.2s-.4-1.6-1.2-2.1c-.8-.5-2-.9-3.7-1.3l-2.9-.6c-2.8-.6-4.8-1.3-5.9-2.1-1.8-1.3-2.8-3.2-2.8-5.9s.9-4.5,2.7-6.1c1.8-1.6,4.4-2.4,7.8-2.4s5.3.8,7.4,2.3c2,1.5,3.1,3.7,3.2,6.7h-5.5c0-1.6-.8-2.8-2.2-3.5-.9-.5-2-.7-3.3-.7s-2.6.3-3.5.9c-.9.6-1.3,1.4-1.3,2.5s.4,1.7,1.3,2.2c.6.3,1.7.7,3.6,1.1l4.7,1.1c2.1.5,3.6,1.2,4.7,2,1.6,1.3,2.4,3.1,2.4,5.6s-1,4.6-2.9,6.2c-1.9,1.7-4.6,2.5-8.1,2.5s-6.4-.8-8.4-2.4c-2-1.6-3.1-3.9-3.1-6.7h5.5c.2,1.2.5,2.2,1,2.8.9,1.1,2.5,1.7,4.8,1.7Z"/>
      <path class="st7" d="M434.6,201c1.3,0,2.4-.1,3.3-.4,1.6-.6,2.4-1.6,2.4-3.2s-.4-1.6-1.2-2.1c-.8-.5-2-.9-3.7-1.3l-2.9-.6c-2.8-.6-4.8-1.3-5.9-2.1-1.8-1.3-2.8-3.2-2.8-5.9s.9-4.5,2.7-6.1c1.8-1.6,4.4-2.4,7.8-2.4s5.3.8,7.4,2.3c2,1.5,3.1,3.7,3.2,6.7h-5.5c0-1.6-.8-2.8-2.2-3.5-.9-.5-2-.7-3.3-.7s-2.6.3-3.5.9-1.3,1.4-1.3,2.5.4,1.7,1.3,2.2c.6.3,1.7.7,3.6,1.1l4.7,1.1c2.1.5,3.6,1.2,4.7,2,1.6,1.3,2.4,3.1,2.4,5.6s-1,4.6-2.9,6.2c-1.9,1.7-4.6,2.5-8.1,2.5s-6.4-.8-8.4-2.4c-2-1.6-3.1-3.9-3.1-6.7h5.5c.2,1.2.5,2.2,1,2.8.9,1.1,2.5,1.7,4.8,1.7Z"/>
    </g>
    <g class="st8">
      <path class="st7" d="M261.2,258c-2,1.9-4.7,2.8-7.8,2.8s-7-1.3-9.3-3.8c-2.3-2.5-3.4-6-3.4-10.4s1.3-8.5,3.8-11c2.2-2.3,5.1-3.4,8.5-3.4s8,1.5,10.1,4.5c1.2,1.7,1.8,3.4,1.9,5.1h-5.7c-.4-1.3-.8-2.3-1.4-3-1-1.2-2.6-1.8-4.6-1.8s-3.7.8-4.9,2.5c-1.2,1.7-1.8,4-1.8,7.1s.6,5.4,1.9,6.9c1.3,1.5,2.9,2.3,4.8,2.3s3.5-.7,4.6-2c.6-.7,1.1-1.8,1.4-3.2h5.7c-.5,3-1.8,5.4-3.8,7.3Z"/>
      <path class="st7" d="M270.9,232.7h5.7v27.3h-5.7v-27.3Z"/>
      <path class="st7" d="M295.5,249.3h-5.9v10.7h-5.6v-27.3h13.4c1.9,0,3.4.3,4.4.7,1,.4,1.9,1.1,2.6,1.9.6.7,1.1,1.5,1.4,2.3.3.8.5,1.8.5,2.9s-.3,2.6-1,3.8c-.7,1.3-1.7,2.1-3.2,2.7,1.3.5,2.2,1.2,2.7,2.2.5.9.8,2.4.8,4.3v1.8c0,1.2,0,2.1.1,2.5.1.7.5,1.2,1,1.6v.7h-6.3c-.2-.6-.3-1.1-.4-1.5-.1-.8-.2-1.6-.2-2.4v-2.5c0-1.7-.4-2.9-1-3.5-.6-.6-1.8-.9-3.4-.9ZM298.9,244.3c1.1-.5,1.7-1.5,1.7-3.1s-.6-2.8-1.7-3.3c-.6-.3-1.5-.5-2.8-.5h-6.6v7.3h6.5c1.3,0,2.3-.1,2.9-.4Z"/>
      <path class="st7" d="M332.6,258c-2,1.9-4.7,2.8-7.8,2.8s-7-1.3-9.3-3.8c-2.3-2.5-3.4-6-3.4-10.4s1.3-8.5,3.8-11c2.2-2.3,5.1-3.4,8.5-3.4s8,1.5,10.1,4.5c1.2,1.7,1.8,3.4,1.9,5.1h-5.7c-.4-1.3-.8-2.3-1.4-3-1-1.2-2.6-1.8-4.6-1.8s-3.7.8-4.9,2.5c-1.2,1.7-1.8,4-1.8,7.1s.6,5.4,1.9,6.9c1.3,1.5,2.9,2.3,4.8,2.3s3.5-.7,4.6-2c.6-.7,1.1-1.8,1.4-3.2h5.7c-.5,3-1.8,5.4-3.8,7.3Z"/>
      <path class="st7" d="M342.7,232.7h5.7v22.4h13.5v4.9h-19.3v-27.3Z"/>
      <path class="st7" d="M386.9,248.1h-13.3v7h15.1v4.9h-20.7v-27.3h20.1v4.8h-14.5v5.8h13.3v4.8Z"/>
    </g>
  </g>
  <g id="_x33_D-Gold">
    <g class="st11">
      <image width="2752" height="1536" transform="translate(-130.1 45.8) scale(.2)" xlink:href="../ABC Logo V2/ABC-Logo-Gold-3D-transparent-Firefly.png"/>
      <image width="1212" height="1195" transform="translate(0 72.8) scale(.2)" xlink:href="abc-logo-3D-gold-3line-blau-konstruktion-1.png"/>
    </g>
  </g>
  <g id="Strahlen-Logo" class="st10">
    <g id="Text">
      <text class="st5" transform="translate(239 95)"><tspan x="0" y="0">Gerlinde Pramer&apos;s</tspan></text>
      <text class="st6" transform="translate(239 150)"><tspan x="0" y="0">ANAHATA</tspan></text>
      <text class="st6" transform="translate(239 205)"><tspan x="0" y="0">BUSINESS</tspan></text>
      <text class="st6" transform="translate(239 260)"><tspan x="0" y="0">CIRCLE</tspan></text>
    </g>
    <g id="Signet-Strahlen">
      <g>
        <line class="st2" x1="104" y1="88.5" x2="104" y2="61.5"/>
        <line class="st2" x1="104" y1="241.5" x2="104" y2="268.5"/>
        <line class="st2" x1="27.5" y1="165" x2=".5" y2="165"/>
        <line class="st2" x1="180.5" y1="165" x2="207.5" y2="165"/>
        <g>
          <line class="st3" x1="142.2" y1="98.7" x2="155.7" y2="75.4"/>
          <line class="st3" x1="65.8" y1="231.3" x2="52.3" y2="254.6"/>
        </g>
        <g>
          <line class="st3" x1="170.3" y1="126.8" x2="193.6" y2="113.3"/>
          <line class="st3" x1="37.7" y1="203.2" x2="14.4" y2="216.7"/>
        </g>
        <g>
          <line class="st3" x1="170.3" y1="203.2" x2="193.6" y2="216.7"/>
          <line class="st3" x1="37.7" y1="126.8" x2="14.4" y2="113.3"/>
        </g>
        <g>
          <line class="st3" x1="142.2" y1="231.3" x2="155.7" y2="254.6"/>
          <line class="st3" x1="65.8" y1="98.7" x2="52.3" y2="75.4"/>
        </g>
      </g>
      <g class="st9">
        <circle class="st1" cx="90.5" cy="165" r="40.5"/>
        <circle class="st1" cx="117.5" cy="165" r="40.5"/>
      </g>
      <circle class="st4" cx="104" cy="165" r="3.6"/>
    </g>
  </g>
</svg>