<?xml version="1.0" encoding="UTF-8"?>
<svg id="ABC-Logo_3D-Gold" data-name="ABC-Logo 3D-Gold" xmlns="http://www.w3.org/2000/svg" width="157.26mm" height="72.17mm" xmlns:xlink="http://www.w3.org/1999/xlink" viewBox="0 0 445.76 204.59">
  <defs>
    <style>
      .cls-1 {
        fill: #b89968;
      }

      .cls-2 {
        fill: #1a3a6b;
      }

      .cls-3 {
        isolation: isolate;
      }
    </style>
  </defs>
  <g class="cls-3">
    <path class="cls-1" d="M248.96,9.62c1.27.67,2.04,1.85,2.32,3.54h-1.73c-.21-.94-.63-1.63-1.28-2.06-.65-.43-1.47-.65-2.45-.65-1.17,0-2.16.45-2.96,1.34-.8.9-1.2,2.23-1.2,4.01,0,1.54.33,2.79.99,3.75.66.96,1.74,1.45,3.23,1.45,1.14,0,2.09-.34,2.84-1.02.75-.68,1.13-1.77,1.15-3.28h-4.04v-1.45h5.67v6.91h-1.12l-.42-1.66c-.58.65-1.1,1.1-1.55,1.35-.76.43-1.71.65-2.88.65-1.5,0-2.8-.5-3.88-1.49-1.18-1.24-1.77-2.95-1.77-5.12s.58-3.88,1.73-5.16c1.1-1.22,2.52-1.83,4.26-1.83,1.2,0,2.23.23,3.1.7Z"/>
    <path class="cls-1" d="M262.96,13.01c.62.31,1.1.72,1.42,1.22.31.47.52,1.03.63,1.66.09.43.14,1.12.14,2.07h-6.85c.03.96.25,1.73.67,2.3.42.58,1.07.87,1.95.87.82,0,1.47-.27,1.96-.82.27-.32.47-.69.58-1.1h1.55c-.04.35-.18.73-.41,1.16s-.49.77-.77,1.04c-.48.47-1.07.79-1.77.95-.38.09-.81.14-1.28.14-1.16,0-2.15-.43-2.96-1.28-.81-.85-1.21-2.05-1.21-3.58s.41-2.74,1.22-3.68c.81-.94,1.88-1.42,3.2-1.42.66,0,1.31.16,1.93.47ZM263.53,16.7c-.06-.69-.21-1.23-.44-1.64-.43-.76-1.15-1.14-2.15-1.14-.72,0-1.33.26-1.81.79-.49.52-.75,1.19-.78,2h5.19Z"/>
    <path class="cls-1" d="M270.19,12.75h1.5v1.63c.12-.32.42-.7.9-1.16.48-.45,1.04-.68,1.66-.68.03,0,.08,0,.15,0s.19.02.36.04v1.67c-.09-.02-.18-.03-.26-.04s-.17,0-.26,0c-.8,0-1.41.26-1.84.77-.43.51-.64,1.1-.64,1.77v5.41h-1.58v-9.41Z"/>
    <path class="cls-1" d="M279.17,9.25h1.58v12.91h-1.58v-12.91Z"/>
    <path class="cls-1" d="M286.12,9.25h1.61v1.79h-1.61v-1.79ZM286.12,12.79h1.61v9.37h-1.61v-9.37Z"/>
    <path class="cls-1" d="M293.1,12.75h1.5v1.34c.45-.55.92-.95,1.41-1.19s1.05-.36,1.66-.36c1.34,0,2.24.47,2.71,1.4.26.51.39,1.24.39,2.19v6.04h-1.61v-5.93c0-.57-.08-1.04-.25-1.39-.28-.59-.79-.88-1.53-.88-.38,0-.68.04-.92.11-.43.13-.81.39-1.14.77-.26.31-.43.63-.51.96s-.12.8-.12,1.42v4.93h-1.58v-9.41Z"/>
    <path class="cls-1" d="M311.28,13.04c.28.18.6.48.95.92v-4.75h1.52v12.96h-1.42v-1.31c-.37.58-.8,1-1.3,1.26s-1.08.39-1.72.39c-1.04,0-1.95-.44-2.71-1.32s-1.15-2.06-1.15-3.52c0-1.37.35-2.56,1.05-3.56.7-1,1.69-1.51,2.99-1.51.72,0,1.32.15,1.8.46ZM307.74,20.1c.43.68,1.11,1.02,2.05,1.02.73,0,1.33-.31,1.8-.94.47-.63.71-1.53.71-2.71s-.24-2.07-.73-2.64c-.48-.57-1.08-.86-1.79-.86-.79,0-1.44.3-1.93.91s-.74,1.51-.74,2.69c0,1.01.21,1.85.64,2.53Z"/>
    <path class="cls-1" d="M324.92,13.01c.62.31,1.1.72,1.42,1.22.31.47.52,1.03.63,1.66.09.43.14,1.12.14,2.07h-6.85c.03.96.25,1.73.67,2.3.42.58,1.07.87,1.94.87.82,0,1.47-.27,1.96-.82.27-.32.47-.69.58-1.1h1.56c-.04.35-.18.73-.41,1.16-.23.42-.49.77-.78,1.04-.48.47-1.07.79-1.77.95-.38.09-.81.14-1.28.14-1.16,0-2.15-.43-2.96-1.28-.81-.85-1.21-2.05-1.21-3.58s.41-2.74,1.22-3.68c.81-.94,1.88-1.42,3.2-1.42.66,0,1.31.16,1.93.47ZM325.48,16.7c-.06-.69-.21-1.23-.44-1.64-.43-.76-1.15-1.14-2.15-1.14-.72,0-1.32.26-1.81.79s-.75,1.19-.78,2h5.19Z"/>
    <path class="cls-1" d="M340.47,9.25h5.78c1.14,0,2.06.32,2.77.97.7.65,1.05,1.56,1.05,2.73,0,1.01-.31,1.88-.94,2.63-.63.75-1.59,1.12-2.88,1.12h-4.03v5.46h-1.75v-12.91ZM347.25,11.03c-.38-.18-.91-.27-1.58-.27h-3.46v4.47h3.46c.78,0,1.41-.17,1.9-.5.48-.33.73-.92.73-1.77,0-.95-.35-1.59-1.05-1.93Z"/>
    <path class="cls-1" d="M355.13,12.75h1.5v1.63c.12-.32.42-.7.91-1.16.48-.45,1.03-.68,1.66-.68.03,0,.08,0,.15,0s.19.02.36.04v1.67c-.09-.02-.18-.03-.26-.04-.08,0-.17,0-.26,0-.8,0-1.41.26-1.84.77-.43.51-.64,1.1-.64,1.77v5.41h-1.58v-9.41Z"/>
    <path class="cls-1" d="M369.11,16.47c.36-.05.61-.2.73-.46.07-.14.11-.34.11-.61,0-.54-.19-.93-.57-1.18s-.93-.37-1.64-.37c-.82,0-1.41.22-1.75.67-.19.25-.32.62-.38,1.1h-1.48c.03-1.16.41-1.97,1.13-2.43.72-.46,1.56-.68,2.52-.68,1.11,0,2,.21,2.7.63.68.42,1.03,1.08,1.03,1.97v5.42c0,.16.03.3.1.4.07.1.21.15.43.15.07,0,.15,0,.24-.01.09,0,.18-.02.28-.04v1.17c-.25.07-.43.11-.56.13s-.3.03-.53.03c-.54,0-.94-.19-1.19-.58-.13-.21-.22-.5-.27-.87-.32.42-.79.79-1.39,1.1s-1.27.47-2,.47c-.87,0-1.59-.26-2.14-.79-.55-.53-.83-1.19-.83-1.99,0-.87.27-1.55.82-2.03.54-.48,1.26-.78,2.14-.89l2.52-.32ZM365.78,20.74c.33.26.73.39,1.19.39.56,0,1.1-.13,1.62-.39.88-.43,1.32-1.13,1.32-2.1v-1.27c-.19.12-.44.23-.75.31-.3.08-.6.14-.89.18l-.96.12c-.57.08-1,.2-1.29.36-.49.27-.73.71-.73,1.32,0,.46.17.82.5,1.08Z"/>
    <path class="cls-1" d="M377.06,12.75h1.56v1.34c.38-.46.71-.8,1.02-1.01.52-.36,1.11-.54,1.78-.54.75,0,1.35.18,1.81.55.26.21.49.52.7.93.35-.5.76-.88,1.24-1.12.47-.24,1.01-.36,1.6-.36,1.27,0,2.13.46,2.58,1.37.25.49.37,1.15.37,1.99v6.27h-1.64v-6.54c0-.63-.16-1.06-.47-1.29s-.7-.35-1.15-.35c-.62,0-1.16.21-1.6.62-.45.42-.67,1.11-.67,2.08v5.48h-1.61v-6.14c0-.64-.08-1.1-.23-1.4-.24-.44-.69-.66-1.35-.66-.6,0-1.14.23-1.63.69s-.73,1.3-.73,2.51v4.99h-1.58v-9.41Z"/>
    <path class="cls-1" d="M400.86,13.01c.62.31,1.1.72,1.42,1.22.31.47.52,1.03.63,1.66.09.43.14,1.12.14,2.07h-6.85c.03.96.25,1.73.67,2.3.42.58,1.07.87,1.95.87.82,0,1.47-.27,1.96-.82.27-.32.47-.69.58-1.1h1.56c-.04.35-.18.73-.41,1.16-.23.42-.49.77-.77,1.04-.48.47-1.07.79-1.77.95-.38.09-.8.14-1.28.14-1.17,0-2.15-.43-2.96-1.28-.81-.85-1.21-2.05-1.21-3.58s.41-2.74,1.22-3.68c.82-.94,1.88-1.42,3.2-1.42.66,0,1.31.16,1.93.47ZM401.43,16.7c-.06-.69-.21-1.23-.44-1.64-.43-.76-1.15-1.14-2.15-1.14-.72,0-1.33.26-1.81.79-.49.52-.75,1.19-.78,2h5.19Z"/>
    <path class="cls-1" d="M408.09,12.75h1.5v1.63c.12-.32.42-.7.91-1.16.48-.45,1.03-.68,1.66-.68.03,0,.08,0,.15,0s.19.02.36.04v1.67c-.09-.02-.18-.03-.26-.04-.08,0-.17,0-.26,0-.8,0-1.41.26-1.84.77-.43.51-.64,1.1-.64,1.77v5.41h-1.58v-9.41Z"/>
    <path class="cls-1" d="M418.84,9.25l-.29,5.17h-1.02l-.29-5.17h1.6Z"/>
    <path class="cls-1" d="M424.39,19.21c.05.53.18.93.4,1.21.41.51,1.11.76,2.12.76.6,0,1.12-.13,1.58-.38.45-.26.68-.65.68-1.18,0-.4-.18-.71-.54-.92-.23-.13-.69-.28-1.38-.45l-1.28-.32c-.82-.2-1.42-.42-1.8-.67-.69-.43-1.04-1.02-1.04-1.78,0-.89.33-1.61.98-2.16.65-.55,1.52-.83,2.62-.83,1.44,0,2.47.42,3.11,1.25.4.53.59,1.1.58,1.71h-1.49c-.03-.36-.16-.68-.39-.97-.37-.41-1.02-.62-1.94-.62-.61,0-1.07.11-1.39.34s-.47.53-.47.9c0,.41.21.74.62.98.24.15.59.27,1.06.39l1.07.25c1.16.28,1.93.54,2.33.8.62.4.92,1.04.92,1.91s-.32,1.56-.97,2.17-1.62.91-2.94.91c-1.42,0-2.42-.32-3.01-.95-.59-.63-.91-1.42-.95-2.36h1.52Z"/>
  </g>
  <g class="cls-3">
    <path class="cls-2" d="M257.91,71.54h-10.08l-1.89,5.62h-5.97l9.76-27.35h6.46l9.69,27.35h-6.2l-1.76-5.62ZM256.31,66.83l-3.41-10.76-3.53,10.76h6.94Z"/>
    <path class="cls-2" d="M293.43,77.16h-5.71l-11.17-19.43v19.43h-5.32v-27.35h5.99l10.89,19.09v-19.09h5.32v27.35Z"/>
    <path class="cls-2" d="M316.74,71.54h-10.08l-1.89,5.62h-5.97l9.76-27.35h6.46l9.69,27.35h-6.2l-1.76-5.62ZM315.15,66.83l-3.41-10.76-3.53,10.76h6.94Z"/>
    <path class="cls-2" d="M346.46,77.16v-12.21h-10.69v12.21h-5.66v-27.35h5.66v10.43h10.69v-10.43h5.68v27.35h-5.68Z"/>
    <path class="cls-2" d="M375.58,71.54h-10.07l-1.89,5.62h-5.97l9.76-27.35h6.46l9.69,27.35h-6.2l-1.76-5.62ZM373.98,66.83l-3.41-10.76-3.53,10.76h6.94Z"/>
    <path class="cls-2" d="M406.06,49.81v4.84h-8.18v22.51h-5.75v-22.51h-8.22v-4.84h22.15Z"/>
    <path class="cls-2" d="M424.58,71.54h-10.08l-1.89,5.62h-5.97l9.76-27.35h6.46l9.69,27.35h-6.2l-1.76-5.62ZM422.99,66.83l-3.41-10.76-3.53,10.76h6.94Z"/>
  </g>
  <g class="cls-3">
    <path class="cls-2" d="M254.38,132.16h-12.39v-27.35h13.29c3.35.05,5.73,1.02,7.12,2.91.84,1.16,1.26,2.55,1.26,4.17s-.42,3.01-1.26,4.03c-.47.57-1.16,1.09-2.08,1.56,1.4.51,2.45,1.31,3.16,2.41.71,1.1,1.07,2.44,1.07,4.01s-.41,3.07-1.22,4.36c-.52.85-1.17,1.57-1.95,2.15-.88.67-1.91,1.13-3.11,1.37-1.19.25-2.49.37-3.89.37ZM257.09,114.91c.74-.45,1.11-1.24,1.11-2.39,0-1.27-.5-2.12-1.48-2.52-.85-.28-1.94-.43-3.27-.43h-6.01v6.03h6.72c1.2,0,2.18-.23,2.93-.69ZM254.25,120.12h-6.81v7.29h6.72c1.2,0,2.13-.16,2.8-.48,1.21-.59,1.82-1.73,1.82-3.41,0-1.42-.59-2.4-1.76-2.93-.66-.3-1.58-.45-2.76-.46Z"/>
    <path class="cls-2" d="M287.49,121.62v-16.81h5.81v16.81c0,2.91-.45,5.17-1.36,6.79-1.68,2.97-4.89,4.45-9.63,4.45s-7.96-1.48-9.65-4.45c-.9-1.62-1.36-3.88-1.36-6.79v-16.81h5.81v16.81c0,1.88.22,3.25.67,4.12.69,1.53,2.2,2.3,4.53,2.3s3.82-.77,4.51-2.3c.45-.87.67-2.24.67-4.12Z"/>
    <path class="cls-2" d="M310.66,128.21c1.35,0,2.44-.15,3.28-.45,1.6-.57,2.39-1.63,2.39-3.17,0-.9-.4-1.6-1.19-2.1-.79-.48-2.04-.91-3.73-1.28l-2.89-.65c-2.84-.64-4.81-1.34-5.9-2.1-1.84-1.26-2.76-3.23-2.76-5.92,0-2.45.89-4.48,2.67-6.1,1.78-1.62,4.4-2.43,7.85-2.43,2.88,0,5.34.76,7.38,2.29,2.03,1.53,3.1,3.75,3.2,6.65h-5.49c-.1-1.64-.82-2.81-2.15-3.51-.89-.46-2-.69-3.32-.69-1.47,0-2.65.3-3.53.89-.88.59-1.32,1.42-1.32,2.49,0,.98.43,1.71,1.3,2.19.56.32,1.74.7,3.56,1.13l4.71,1.13c2.07.5,3.62,1.16,4.68,1.99,1.63,1.29,2.45,3.15,2.45,5.58s-.96,4.57-2.87,6.23c-1.91,1.65-4.61,2.48-8.1,2.48s-6.36-.81-8.41-2.44c-2.04-1.63-3.06-3.86-3.06-6.71h5.46c.17,1.25.51,2.18,1.02,2.8.93,1.13,2.52,1.69,4.77,1.69Z"/>
    <path class="cls-2" d="M327.61,104.81h5.68v27.35h-5.68v-27.35Z"/>
    <path class="cls-2" d="M362.7,132.16h-5.71l-11.17-19.43v19.43h-5.32v-27.35h5.99l10.89,19.09v-19.09h5.32v27.35Z"/>
    <path class="cls-2" d="M389.04,120.21h-13.29v7.03h15.14v4.92h-20.73v-27.35h20.06v4.84h-14.47v5.81h13.29v4.75Z"/>
    <path class="cls-2" d="M407.25,128.21c1.35,0,2.44-.15,3.28-.45,1.6-.57,2.39-1.63,2.39-3.17,0-.9-.4-1.6-1.19-2.1-.79-.48-2.04-.91-3.73-1.28l-2.89-.65c-2.84-.64-4.81-1.34-5.9-2.1-1.84-1.26-2.76-3.23-2.76-5.92,0-2.45.89-4.48,2.67-6.1,1.78-1.62,4.4-2.43,7.85-2.43,2.88,0,5.34.76,7.38,2.29,2.03,1.53,3.1,3.75,3.2,6.65h-5.49c-.1-1.64-.82-2.81-2.15-3.51-.89-.46-2-.69-3.32-.69-1.47,0-2.65.3-3.53.89-.88.59-1.32,1.42-1.32,2.49,0,.98.43,1.71,1.3,2.19.56.32,1.74.7,3.56,1.13l4.71,1.13c2.07.5,3.62,1.16,4.68,1.99,1.63,1.29,2.45,3.15,2.45,5.58s-.96,4.57-2.87,6.23c-1.91,1.65-4.61,2.48-8.1,2.48s-6.37-.81-8.41-2.44c-2.04-1.63-3.06-3.86-3.06-6.71h5.46c.17,1.25.51,2.18,1.02,2.8.93,1.13,2.52,1.69,4.77,1.69Z"/>
    <path class="cls-2" d="M434.58,128.21c1.35,0,2.44-.15,3.28-.45,1.6-.57,2.39-1.63,2.39-3.17,0-.9-.4-1.6-1.19-2.1-.79-.48-2.04-.91-3.73-1.28l-2.89-.65c-2.85-.64-4.81-1.34-5.9-2.1-1.84-1.26-2.76-3.23-2.76-5.92,0-2.45.89-4.48,2.67-6.1,1.78-1.62,4.4-2.43,7.85-2.43,2.88,0,5.34.76,7.38,2.29,2.04,1.53,3.1,3.75,3.2,6.65h-5.49c-.1-1.64-.82-2.81-2.15-3.51-.89-.46-2-.69-3.32-.69-1.47,0-2.65.3-3.53.89s-1.32,1.42-1.32,2.49c0,.98.43,1.71,1.3,2.19.56.32,1.74.7,3.56,1.13l4.71,1.13c2.07.5,3.62,1.16,4.68,1.99,1.63,1.29,2.45,3.15,2.45,5.58s-.96,4.57-2.87,6.23c-1.91,1.65-4.61,2.48-8.1,2.48s-6.36-.81-8.41-2.44c-2.04-1.63-3.06-3.86-3.06-6.71h5.46c.17,1.25.51,2.18,1.02,2.8.93,1.13,2.52,1.69,4.77,1.69Z"/>
  </g>
  <g class="cls-3">
    <path class="cls-2" d="M261.19,185.12c-2.04,1.87-4.65,2.8-7.83,2.8-3.93,0-7.03-1.26-9.28-3.79-2.25-2.54-3.38-6.01-3.38-10.43,0-4.77,1.28-8.45,3.84-11.04,2.23-2.25,5.06-3.38,8.5-3.38,4.6,0,7.97,1.51,10.09,4.53,1.17,1.7,1.81,3.4,1.89,5.1h-5.71c-.37-1.31-.85-2.3-1.43-2.97-1.04-1.19-2.58-1.78-4.62-1.78s-3.72.84-4.92,2.51c-1.2,1.68-1.8,4.05-1.8,7.12s.63,5.37,1.9,6.89c1.27,1.53,2.88,2.29,4.83,2.29s3.53-.66,4.58-1.97c.58-.71,1.06-1.76,1.45-3.17h5.66c-.5,2.98-1.76,5.41-3.79,7.27Z"/>
    <path class="cls-2" d="M270.87,159.81h5.68v27.35h-5.68v-27.35Z"/>
    <path class="cls-2" d="M295.46,176.44h-5.9v10.72h-5.58v-27.35h13.42c1.92.04,3.39.27,4.42.71,1.03.43,1.91,1.07,2.63,1.91.59.69,1.06,1.46,1.41,2.3.35.84.52,1.8.52,2.88,0,1.3-.33,2.58-.98,3.83-.66,1.25-1.74,2.14-3.25,2.66,1.26.51,2.16,1.23,2.68,2.16.53.93.79,2.36.79,4.28v1.84c0,1.25.05,2.1.15,2.54.15.71.49,1.22,1.04,1.56v.69h-6.29c-.17-.61-.3-1.09-.37-1.47-.15-.77-.23-1.55-.24-2.36l-.04-2.54c-.03-1.74-.34-2.91-.96-3.49-.61-.58-1.76-.87-3.44-.87ZM298.93,171.47c1.14-.52,1.71-1.55,1.71-3.08,0-1.66-.55-2.77-1.65-3.34-.62-.32-1.55-.48-2.78-.48h-6.64v7.35h6.48c1.29,0,2.25-.15,2.89-.45Z"/>
    <path class="cls-2" d="M332.56,185.12c-2.04,1.87-4.65,2.8-7.83,2.8-3.93,0-7.03-1.26-9.28-3.79-2.25-2.54-3.38-6.01-3.38-10.43,0-4.77,1.28-8.45,3.84-11.04,2.23-2.25,5.06-3.38,8.5-3.38,4.6,0,7.97,1.51,10.09,4.53,1.18,1.7,1.81,3.4,1.89,5.1h-5.71c-.37-1.31-.85-2.3-1.43-2.97-1.04-1.19-2.58-1.78-4.62-1.78s-3.72.84-4.92,2.51c-1.2,1.68-1.8,4.05-1.8,7.12s.63,5.37,1.9,6.89c1.27,1.53,2.88,2.29,4.83,2.29s3.53-.66,4.58-1.97c.58-.71,1.06-1.76,1.45-3.17h5.66c-.5,2.98-1.76,5.41-3.79,7.27Z"/>
    <path class="cls-2" d="M342.68,159.81h5.71v22.43h13.54v4.92h-19.26v-27.35Z"/>
    <path class="cls-2" d="M386.91,175.21h-13.29v7.03h15.14v4.92h-20.73v-27.35h20.06v4.84h-14.47v5.81h13.29v4.75Z"/>
  </g>
  <image width="1212" height="1195" transform="scale(.17)" xlink:href="ABC-Logo-Gold-3D-geschlossen-transparent-zugeschnitten-1212x1195px.avif"/>
</svg>