<svg width="474" height="330" viewBox="26 0 474 330" xmlns="http://www.w3.org/2000/svg">
  <!-- Geometrisches Symbol (Anahata-Motiv) -->
  <g transform="translate(130, 165) scale(0.9)">
    <g stroke="#B5955D" stroke-width="1.5">
      <line x1="0" y1="-85" x2="0" y2="-115" />
      <line x1="0" y1="85" x2="0" y2="115" />
      <line x1="-85" y1="0" x2="-115" y2="0" />
      <line x1="85" y1="0" x2="115" y2="0" />
      <g transform="rotate(30)"><line x1="0" y1="-85" x2="0" y2="-115" /><line x1="0" y1="85" x2="0" y2="115" /></g>
      <g transform="rotate(60)"><line x1="0" y1="-85" x2="0" y2="-115" /><line x1="0" y1="85" x2="0" y2="115" /></g>
      <g transform="rotate(120)"><line x1="0" y1="-85" x2="0" y2="-115" /><line x1="0" y1="85" x2="0" y2="115" /></g>
      <g transform="rotate(150)"><line x1="0" y1="-85" x2="0" y2="-115" /><line x1="0" y1="85" x2="0" y2="115" /></g>
    </g>
    <g fill="none" stroke="#B5955D" stroke-width="2.5" opacity="0.85">
      <circle cx="-15" cy="0" r="45" />
      <circle cx="15" cy="0" r="45" />
    </g>
    <circle cx="0" cy="0" r="4" fill="#B5955D" />
  </g>

  <!-- Textzeilen (violett) -->
  <text x="265" y="95" font-family="sans-serif" font-weight="300" font-size="18" fill="#B5955D" style="letter-spacing: 3px;">Gerlinde Pramer's</text>
  <text x="265" y="150" font-family="sans-serif" font-weight="700" font-size="38" fill="#554596" style="letter-spacing: 2px;">ANAHATA</text>
  <text x="265" y="205" font-family="sans-serif" font-weight="700" font-size="38" fill="#554596" style="letter-spacing: 2px;">BUSINESS</text>
  <text x="265" y="260" font-family="sans-serif" font-weight="700" font-size="38" fill="#554596" style="letter-spacing: 2px;">CIRCLE</text>
</svg>
